<svg overflow="visible" width="100%" height="100%" viewBox="0 0 100 101" fill="none" xmlns="http://www.w3.org/2000/svg">
    <path d="M83.8906 42.6325 L87.2667 43.9771 L87.2134 45.1134 L86.1314 47.7651 L56.0000 57.0000 L52.0040 47.0708 L83.8906 42.6325" fill="#D97757"/>
    <path d="M72.5808 20.4382 L76.6474 20.7744 L77.5917 22.0387 L78.2212 25.2289 L77.4568 27.3803 L58.5000 58.5000 L49.0000 49.0000 L68.1103 24.5801 L72.5808 20.4382" fill="#D97757"/>
    <path d="M53.9130 17.6300 L56.1707 15.5187 L57.9556 16.3703 L59.5386 19.6183 L56.6511 48.1620 L52.0005 45.0000 L50.0005 39.5000 L52.3887 21.6787 L53.9130 17.6300" fill="#D97757"/>
    <path d="M30.7812 17.5710 L32.7681 14.2208 L34.2873 13.9874 L37.3880 14.9230 L38.9904 16.5901 L48.8202 34.6902 L54.0089 49.8008 L47.9378 53.1760 L32.6579 23.2898 L30.7812 17.5710" fill="#D97757"/>
    <path d="M22.1708 34.5782 L20.6933 31.3818 L22.8721 29.0530 L26.0081 30.0067 L26.8680 30.1725 L36.1690 35.6750 L42.5000 40.5000 L51.5000 47.5000 L46.5000 56.0000 L42.0002 52.5000 L39.0001 49.5000 L23.8394 36.2657 L22.1708 34.5782" fill="#D97757"/>
    <path d="M17.6368 52.0440 L15.4030 50.3476 L15.3949 48.8011 L17.6460 48.2971 L31.0646 49.1393 L53.0000 51.0000 L52.1885 55.9782 L19.6220 52.3368 L17.6368 52.0440" fill="#D97757"/>
    <path d="M27.9152 69.7245 L23.5431 70.4789 L22.0753 68.9077 L22.4454 66.7473 L31.0765 60.9880 L53.5082 46.0337 L57.0005 52.0000 L27.9152 69.7245" fill="#D97757"/>
    <path d="M33.0193 81.7469 L31.3591 82.4354 L29.0791 81.3816 L29.7919 79.0265 L52.0003 50.5000 L56.0004 55.9999 L39.3060 73.3937 L33.0193 81.7469" fill="#D97757"/>
    <path d="M51.4840 85.6185 L50.3762 87.6084 L48.1069 88.6226 L46.2581 86.6718 L45.2339 83.7296 L51.0003 55.4999 L55.5001 55.9999 L51.4840 85.6185" fill="#D97757"/>
    <path d="M70.8047 77.9909 L71.2480 81.6778 L70.9814 83.0253 L69.4072 83.7678 L66.4838 82.9927 L47.4669 57.2642 L56.9998 50.0002 L64.3034 63.8275 L62.0684 65.1325 L70.8047 77.9909" fill="#D97757"/>
    <path d="M82.0643 75.4858 L82.7431 77.7681 L81.5259 79.4504 L80.1051 78.8666 L71.8460 72.6249 L63.2426 65.4482 L55.0007 60.4991 L58.0000 51.0000 L62.9999 54.0001 L66.0007 59.4991 L82.0643 75.4858" fill="#D97757"/>
    <path d="M73.3992 53.9598 L85.8646 55.1804 L88.9112 56.8905 L91.0043 59.4310 L91.0957 61.2263 L85.8142 62.8769 L66.5005 59.0000 L55.0003 58.5000 L58.0000 48.0000 L66.0005 54.0000 L73.3992 53.9598" fill="#D97757"/>
</svg>
